PathFileType	4	(X/Y/Z)	OpenSim_Sub03_EMGStiffKnee_Accel.trc
DataRate	CameraRate	NumFrames	NumMarkers	Units	OrigDataRate	OrigDataStartFrame	OrigNumFrames
100	100	27	8	m	100	6648	7597
Frame#	Time	torso_imu_offset_imu	pelvis_imu_offset_imu	tibia_r_imu_offset_imu	femur_r_imu_offset_imu	tibia_l_imu_offset_imu	femur_l_imu_offset_imu	toes_r_imu_offset_imu	toes_l_imu_offset_imu
				X1	Y1	Z1	X2	Y2	Z2	X3	Y3	Z3	X4	Y4	Z4	X5	Y5	Z5	X6	Y6	Z6	X7	Y7	Z7	X8		Y8	Z8	

6648	66.47000000	8.71076417	0.82476964	5.09383078	8.37139026	2.81841181	1.53454035	10.17970030	0.15155524	0.52918707	9.89364848	-0.81677173	0.54780105	9.33492808	0.31840398	1.91391235	8.43326124	2.84390503	1.16570642	5.35449202	-1.97483070	8.10920067	7.78345039	0.75115497	8.10966576
6649	66.48000000	8.76071453	0.89537005	5.12596206	8.46425005	3.07867359	1.40838907	10.02858467	0.70181358	0.36131739	9.87743687	-0.93844702	0.20094886	9.25415486	-0.08183215	1.96245588	8.52608787	2.79337952	1.17139646	5.80659756	-1.52508625	7.96994607	8.05435217	0.62474659	7.90549464
6650	66.49000000	8.70951280	0.91946917	5.08101812	8.64644640	3.25613580	1.30569105	9.77369790	0.87290720	0.46693172	9.54697247	-1.03275826	0.04538963	9.22260760	-0.41280384	1.87802914	8.62764687	2.77860686	1.14549438	5.69096418	-1.58658462	8.20872243	8.01177862	0.51641810	7.70814330
6651	66.50000000	8.76346625	0.99478464	5.14288010	8.76945823	3.29766720	1.14677047	10.00101041	1.33347863	0.44194484	9.42103130	-1.11504519	-0.16438554	9.01381525	-0.71385000	1.71788415	8.49951770	2.74568214	1.13653921	5.89063781	-1.55586267	8.03771610	8.01493200	0.18418732	7.56206874
6652	66.51000000	8.88740761	0.95810476	5.17692823	9.01767292	3.31802944	0.96056244	9.97085765	1.65126683	0.01030050	9.44548425	-1.02165097	-0.23382653	8.76452789	-1.12972377	1.71907987	8.34398422	2.68264972	1.19020559	5.90386157	-1.39206242	8.16510230	8.18145562	0.04597870	7.50692788
6653	66.52000000	9.03785356	0.97862763	5.17832907	9.08882622	2.98955208	0.85692269	9.83928778	1.72665579	0.08170288	9.51480391	-0.90094527	-0.11518110	8.72428141	-1.42682835	1.76065267	8.30177877	2.70372994	1.29098403	6.08471728	-1.19329213	8.07198016	8.25719164	0.17389169	7.41178226
6654	66.53000000	9.14262857	1.03797645	5.25123165	9.01674265	2.90444552	0.71484022	9.86525884	1.58228858	-0.17755324	9.52183781	-0.62218447	0.07110007	8.60480053	-1.70557047	1.62937879	8.26340905	2.84302414	1.30285721	6.41697836	-1.53531383	7.85237124	8.73814755	0.26489893	7.28312494
6655	66.54000000	9.17561025	1.05168466	5.22778668	8.80436468	2.84885134	0.56741392	10.07792051	1.19304661	-0.24867482	9.61907311	-0.66380771	0.30382251	8.40965631	-1.82877267	1.66171516	8.26733745	2.89965003	1.24248287	5.97713720	-1.95159222	8.10095983	8.65911297	0.78961611	6.76247649
6656	66.55000000	9.25199182	1.12254027	5.22783138	8.67863190	2.70891865	0.40711740	10.16870974	1.13208188	-0.30661456	9.87375224	-0.77229782	0.30685186	8.28010108	-1.91004596	1.60764249	8.17993870	2.71688803	1.19281599	5.44538131	-2.85849835	8.04146574	8.06445482	0.99802971	5.82568481
6657	66.56000000	9.26367257	1.13597881	5.32536417	8.68743903	2.51754373	0.25189824	10.38387457	1.24882798	-0.31086528	10.03737079	-0.98031833	0.08732945	8.05794109	-1.75513941	1.49913927	7.99045965	2.37885108	1.25774432	5.89102164	-2.33036788	8.03145191	8.26566185	1.03449439	5.17765846
6658	66.57000000	9.23101359	1.07505871	5.36799002	8.71429254	2.43324689	0.06200725	10.33984539	1.15208148	-0.04062775	10.00713883	-1.34540247	-0.21858314	8.02366990	-1.57430145	1.77508188	7.84565868	2.07346458	1.22611185	5.69852460	-1.56409611	8.40083513	8.41642984	1.26961971	4.58178958
6659	66.58000000	9.26225065	1.05538262	5.38737285	8.75614528	2.50825355	-0.06197455	10.55626570	0.91712656	0.12453866	10.11310507	-1.55689484	-0.57053551	7.96988936	-1.79552068	1.71256357	7.73826058	1.87880570	1.02787026	5.55536393	-1.89417470	8.47073327	8.21383957	1.24872623	3.87023761
6660	66.59000000	9.30604001	1.00216408	5.26476867	8.75983738	2.64841776	-0.16341007	10.97764861	0.72142349	0.20063815	10.32766736	-1.92249802	-0.74826612	7.61725909	-1.87462219	1.55302040	7.45618684	1.71762391	0.68958349	5.77875707	-2.18315898	8.41451902	8.43848980	0.85911038	3.56440545
6661	66.60000000	9.26898340	0.79861168	5.22862243	8.82776195	2.73316533	-0.29440797	11.10740714	0.50023619	0.55948780	10.35410806	-2.15196459	-0.68899212	7.41777627	-2.01901294	1.56393972	6.82130432	1.43072795	0.53070675	5.85344280	-2.11853868	8.40111326	6.08516809	0.71063078	1.29038748
6662	66.61000000	9.24108374	0.66409136	5.31957973	8.98184694	2.72168855	-0.14608904	11.03276068	0.23302378	0.67084391	10.25347910	-2.22707074	-0.41088476	8.53758909	-1.02047534	1.20772869	7.33673940	1.39776164	0.78757824	5.86918940	-2.07156830	8.20328219	8.60566264	1.38845736	-3.46544772
6663	66.62000000	9.37999434	0.64009659	5.37050634	9.09156744	2.47219041	0.23244220	11.25935175	-0.11221543	0.82869505	10.00713892	-2.75559905	0.10175210	10.20090423	0.38265075	2.52655876	8.55442454	1.77257354	1.26008738	5.94265048	-1.85294963	8.39686947	21.87026353	-0.82410346	-11.51650609
6664	66.63000000	9.64521618	0.59366658	5.40583895	9.43730730	2.05862983	0.93841929	11.64212516	-0.40627205	1.24905900	10.12310565	-3.07336824	0.45067075	12.24586927	-0.82953192	3.01757377	11.30614050	2.37304377	1.60500336	5.73933964	-2.04624899	8.58495612	13.66791234	-7.68232622	-11.01169982
6665	66.64000000	10.29200060	0.75609099	5.35612601	10.25905540	1.24368646	2.28887736	12.44090437	-0.66932049	1.04883379	10.27745827	-3.66458263	0.30708092	16.22968448	-5.57679342	-0.99451085	18.09000974	3.15219565	1.78223671	5.73894476	-1.95689700	9.19516245	10.32364177	0.10109311	20.80481361
6666	66.65000000	11.93375189	1.31496029	5.09248898	11.71505862	-0.11483815	4.69454693	14.14289241	-1.40387736	0.40420266	10.74240080	-4.37028100	0.00727188	18.71225713	-1.75768816	-2.20516395	24.59075124	4.29208054	0.67528451	5.79755235	-2.96284991	9.58958487	15.11373911	6.96480748	30.27248623
6667	66.66000000	14.61122003	2.37804376	4.80531239	13.98913454	-2.24561478	6.89224054	16.12464781	-2.60463201	0.37497268	12.14887100	-4.47260937	-0.30294452	21.42649608	11.81478204	5.78606187	20.69872324	3.70971243	-1.28290311	5.40118352	-4.00878774	9.73026518	21.41524077	10.35841065	13.10571560
6668	66.67000000	16.27115358	3.12332566	4.98675246	17.25865089	-4.12434439	7.44795774	16.90255877	-2.84035135	1.38763807	12.91135105	-4.15706485	-0.67815445	19.79548867	8.21714449	3.39162219	14.60223731	-0.17807041	-2.21426917	5.65254802	-4.55402253	10.23286541	33.78705837	18.46131205	13.26931825
6669	66.68000000	15.87224537	3.40019905	5.58505338	19.32557360	-2.96018274	7.05574335	17.03241760	-2.44329667	1.33355989	12.68089937	-3.50452211	-0.48770946	12.13616043	-2.16402206	-1.91454624	11.24949080	-2.28856063	-3.18749206	4.80628799	-5.80823269	11.04359730	21.62905970	-0.96679513	11.44507606
6670	66.69000000	14.65746860	3.61743941	5.69571389	17.97771375	0.44826336	6.26046410	17.60264924	-3.47640054	2.11506887	12.84364019	-2.41106345	0.49091674	9.92328488	-10.07597604	-8.46265745	10.00952029	-0.80300162	-3.89645249	5.34899282	-8.25375379	10.54441594	12.18272038	-9.37805758	12.91586331
6671	66.70000000	13.50597931	3.94099707	5.78371844	14.70120507	3.00487318	5.57138203	16.12387997	-4.87364394	2.93739012	13.30988394	-0.79254071	1.91281091	12.91373315	-18.92093127	-6.22703774	10.19854131	-0.44333819	-1.50324420	6.71516665	-9.68049488	9.32132246	10.27645963	-3.45502673	11.58395320
6672	66.71000000	12.07688799	4.10728270	5.96173254	12.57503896	4.30190131	4.96341450	13.33943638	-4.17989841	0.28672291	12.60028284	1.03269015	2.79663279	10.46975461	-19.36296767	-0.00097628	10.02742439	-2.50122389	0.13047133	8.49575148	-7.38532529	9.16406782	6.29135562	-0.78982527	11.77946291
6673	66.72000000	10.42935589	4.12504571	6.02211584	11.82086164	4.47285787	4.48416930	11.15921634	-2.45973495	-1.38133216	11.90060606	2.39456822	4.11494159	8.11119805	-11.00602741	3.16310432	9.87250040	-4.13104772	-1.29688501	13.30961513	-3.72288742	11.93245409	5.41727412	0.13093601	11.84539717
6674	66.73000000	9.10983623	4.13238407	5.70316016	10.77622337	3.74812111	4.34560593	10.47565075	0.68342077	-1.43735791	11.94109292	3.37543961	5.39397448	9.25393333	-1.61041817	4.96994559	10.27488471	-5.39743803	-1.85224466	15.82352673	-3.68213028	12.14686212	5.71771632	0.36056855	10.98869646
